<?xml version="1.0" standalone="no"?>
<!DOCTYPE svg PUBLIC "-//W3C//DTD SVG 20010904//EN"
 "http://www.w3.org/TR/2001/REC-SVG-20010904/DTD/svg10.dtd">
<svg version="1.0" xmlns="http://www.w3.org/2000/svg"
 width="1056.512539pt" height="298.130700pt" viewBox="0 0 1056.512539 298.130700"
 preserveAspectRatio="xMidYMid meet">
<metadata>
Created by potrace 1.12, written by Peter Selinger 2001-2015
</metadata>
<g transform="translate(-116.487461,375.603331) scale(0.100000,-0.100000)"
fill="#ffffff" stroke="none">
<path d="M2475 3754 c-349 -51 -633 -192 -876 -434 -215 -214 -345 -456 -410
-760 -29 -138 -32 -416 -6 -558 114 -615 582 -1085 1202 -1208 137 -28 425
-25 565 5 304 65 546 195 760 410 215 216 345 453 412 752 20 91 23 130 23
309 -1 172 -4 220 -22 302 -102 456 -391 830 -798 1032 -221 110 -373 146
-635 151 -102 2 -198 1 -215 -1z m-66 -574 c169 -48 310 -130 428 -247 308
-309 364 -773 139 -1158 -49 -83 -205 -244 -291 -300 -363 -236 -843 -194
-1155 102 -205 194 -303 419 -303 693 1 102 6 143 27 224 83 317 311 564 613
666 128 42 180 49 333 45 99 -2 155 -9 209 -25z m1338 -635 c142 -59 217 -228
168 -376 -23 -69 -98 -149 -167 -179 -109 -47 -236 -22 -323 64 -119 116 -126
286 -19 405 48 54 81 75 149 98 48 15 139 10 192 -12z"/>
<path d="M1678 2751 c-306 -98 -445 -459 -286 -740 162 -283 567 -336 798
-102 267 270 154 729 -208 841 -84 26 -224 26 -304 1z m139 -213 c137 -64 206
-228 157 -371 -19 -57 -92 -141 -146 -168 -199 -102 -438 47 -438 272 0 132
100 255 235 290 47 13 140 1 192 -23z"/>
<path d="M2613 2552 c-95 -34 -169 -112 -194 -207 -16 -56 -6 -155 21 -210 71
-147 258 -212 404 -141 66 33 129 100 150 163 22 65 20 177 -3 229 -65 143
-235 217 -378 166z"/>
<path d="M4711 2809 c-93 -30 -162 -100 -191 -197 -20 -66 -21 -87 -18 -383 3
-297 4 -317 25 -361 30 -66 95 -132 153 -157 79 -34 170 -40 588 -41 l392 0 0
310 0 310 -120 0 -120 0 0 -190 0 -190 -282 0 c-264 0 -284 1 -324 21 -31 15
-48 32 -64 64 -20 41 -21 56 -18 274 3 252 4 255 72 305 27 20 41 21 442 24
l414 3 0 114 0 115 -442 -1 c-416 0 -447 -1 -507 -20z"/>
<path d="M5890 2715 l0 -115 398 0 c419 0 456 -4 498 -45 35 -35 34 -102 -3
-137 -48 -45 -82 -48 -500 -48 l-393 0 0 -115 0 -115 169 0 168 0 274 -234
274 -235 180 0 180 0 -35 32 c-20 17 -141 122 -270 232 l-235 200 105 6 c218
12 323 104 345 299 8 68 -9 179 -35 230 -30 59 -104 117 -178 140 -60 19 -93
20 -503 20 l-439 0 0 -115z"/>
<path d="M7681 2808 c-5 -13 -116 -268 -246 -568 -130 -300 -239 -551 -242
-558 -4 -10 22 -12 123 -10 l129 3 185 427 c102 235 187 428 190 428 3 0 88
-193 190 -428 l186 -427 127 -3 c70 -1 127 -1 127 1 0 2 -112 262 -249 578
l-250 574 -130 3 c-129 3 -131 2 -140 -20z"/>
<path d="M8243 2818 c10 -26 449 -1035 474 -1091 l26 -58 126 3 126 3 247 570
c136 314 248 574 248 578 0 4 -56 6 -125 5 l-126 -3 -180 -415 c-99 -228 -184
-419 -188 -423 -5 -4 -91 183 -192 417 l-184 426 -129 0 c-99 0 -127 -3 -123
-12z"/>
<path d="M9640 2250 l0 -580 115 0 115 0 0 580 0 580 -115 0 -115 0 0 -580z"/>
<path d="M10100 2250 l0 -580 115 0 115 0 0 580 0 580 -115 0 -115 0 0 -580z"/>
<path d="M10570 2715 l0 -115 230 0 230 0 0 -465 0 -465 115 0 115 0 0 465 0
465 235 0 235 0 0 115 0 115 -580 0 -580 0 0 -115z"/>
<path d="M6772 1360 c-16 -15 -22 -32 -22 -64 0 -63 19 -76 138 -90 106 -13
132 -25 132 -62 0 -42 -33 -54 -157 -54 -94 0 -113 -3 -113 -15 0 -21 228 -22
269 0 34 17 46 55 31 100 -14 41 -39 52 -154 64 -93 9 -116 22 -116 62 0 37
38 49 152 49 89 0 108 3 108 15 0 13 -20 15 -123 15 -110 0 -126 -2 -145 -20z"/>
<path d="M7290 1160 c0 -189 2 -220 15 -220 12 0 15 15 15 75 l0 75 25 -16
c19 -13 45 -15 129 -12 140 4 140 4 144 153 4 111 3 115 -22 140 -24 24 -31
25 -128 25 -78 0 -109 -4 -126 -16 -20 -14 -22 -14 -22 0 0 9 -7 16 -15 16
-13 0 -15 -31 -15 -220z m276 176 c17 -13 19 -27 19 -115 0 -69 -4 -104 -13
-113 -8 -8 -47 -14 -107 -16 -90 -4 -95 -3 -120 23 -26 25 -27 30 -23 116 2
76 6 93 22 105 27 20 195 20 222 0z"/>
<path d="M7870 1365 c0 -12 19 -15 114 -15 125 0 146 -8 146 -56 0 -30 -1 -31
-134 -48 -127 -16 -151 -31 -151 -96 0 -67 27 -84 136 -89 81 -3 95 -1 120 18
29 21 29 21 29 1 0 -13 7 -20 20 -20 19 0 20 7 20 119 0 125 -11 175 -40 191
-10 6 -73 10 -139 10 -101 0 -121 -2 -121 -15z m260 -179 c0 -72 -22 -90 -117
-94 -95 -3 -127 10 -131 54 -4 44 15 55 121 69 137 19 127 21 127 -29z"/>
<path d="M8442 1373 c-28 -11 -42 -62 -42 -152 0 -147 15 -161 174 -161 120 0
141 10 156 74 10 44 6 56 -16 56 -9 0 -14 -10 -14 -28 0 -56 -19 -67 -122 -70
-121 -5 -137 6 -145 95 -3 33 -3 77 1 97 11 59 26 66 132 66 104 0 134 -15
134 -65 0 -18 5 -25 20 -25 23 0 23 2 10 52 -17 59 -38 68 -165 67 -60 0 -116
-3 -123 -6z"/>
<path d="M8985 1355 c-24 -23 -25 -31 -25 -133 0 -156 0 -156 164 -160 107 -3
126 -1 126 11 0 13 -21 16 -115 19 -67 2 -119 8 -125 14 -7 6 -14 30 -17 53
l-6 41 147 0 146 0 0 55 c0 60 -19 109 -45 119 -9 3 -64 6 -121 6 -98 0 -107
-2 -129 -25z m239 -20 c19 -20 32 -83 19 -96 -5 -5 -62 -8 -129 -7 l-119 3 1
44 c1 62 18 71 125 71 65 0 91 -4 103 -15z"/>
</g>
</svg>
