<?xml version="1.0" encoding="UTF-8" standalone="no"?>
<!-- Created with Inkscape (http://www.inkscape.org/) -->

<svg
   width="1700.1318"
   height="265.83984"
   viewBox="0 0 449.82653 70.336792"
   version="1.1"
   id="svg1"
   xml:space="preserve"
   xmlns="http://www.w3.org/2000/svg"
   xmlns:svg="http://www.w3.org/2000/svg"><defs
     id="defs1" /><g
     id="layer1"
     transform="translate(-29.086721,-107.7066)"><g
       transform="matrix(0.06815554,0,0,-0.06815554,-108.58747,273.46101)"
       fill="#ffffff"
       stroke="none"
       id="g8"><g
         id="g13"><path
           d="m 2321,2325 c -195,-55 -301,-210 -301,-440 0,-192 77,-338 213,-405 154,-76 334,-58 454,44 43,37 96,136 107,199 l 7,37 h -100 -99 l -12,-35 c -23,-71 -75,-105 -156,-105 -132,0 -203,106 -191,289 8,132 49,205 133,237 83,32 189,-11 216,-86 l 10,-30 h 99 c 113,0 111,-2 84,88 -22,72 -96,151 -176,187 -78,35 -204,43 -288,20 z"
           id="path2" /><path
           d="m 4310,2326 c -146,-40 -253,-151 -289,-300 -15,-62 -15,-233 0,-289 30,-113 117,-220 216,-267 140,-66 346,-36 446,64 39,39 79,110 91,161 4,17 9,38 12,48 5,16 -2,17 -97,15 l -103,-3 -8,-30 c -26,-93 -157,-136 -252,-82 -63,35 -90,99 -94,219 -5,116 13,182 65,238 79,88 236,68 279,-37 l 14,-33 h 101 101 l -7,38 c -30,167 -173,273 -365,271 -36,0 -85,-6 -110,-13 z"
           id="path3" /><path
           d="m 2850,2230 v -90 h 120 120 v -340 -340 h 110 110 v 340 340 h 120 120 v 90 90 h -350 -350 z"
           id="path4" /><path
           d="m 3650,1890 v -430 h 110 110 v 430 430 h -110 -110 z"
           id="path5" /><path
           d="m 6632,2008 c 5,-371 9,-392 92,-474 70,-70 141,-96 261,-97 137,-1 229,36 295,118 58,73 63,108 68,453 l 4,312 h -111 -111 v -292 c 0,-175 -4,-308 -11,-331 -14,-53 -56,-77 -134,-77 -40,0 -69,6 -84,16 -47,34 -51,62 -51,384 v 300 h -111 -111 z"
           id="path6" /><path
           d="m 7500,1890 v -430 h 106 106 l -4,265 c -1,146 -2,265 -1,265 1,0 30,-55 66,-122 36,-68 101,-186 144,-263 l 80,-140 119,-3 119,-3 -1,428 -2,428 -101,3 -102,3 3,-271 c 2,-148 2,-270 1,-270 -2,0 -17,28 -34,63 -17,34 -83,155 -146,270 l -115,207 h -119 -119 z"
           id="path7" /><path
           d="m 8410,1890 v -430 h 105 105 v 430 430 h -105 -105 z"
           id="path8" /></g><g
         id="g15"
         transform="matrix(14.672322,0,0,-14.672322,1593.2303,4012.3079)"><rect
           style="display:inline;opacity:1;fill:#8b0628;fill-opacity:1;stroke-width:0.261206"
           id="rect13"
           width="68.158623"
           height="70.198929"
           x="247.18367"
           y="107.84393" /><path
           id="rect14"
           style="display:inline;opacity:1;fill:#dbb0b7;fill-opacity:1;stroke-width:0.261206"
           d="m 247.1844,107.7066 v 0.13746 h 4.63537 z m 4.63537,0.13746 4.56561,0.1354 9.26921,0.34054 2.52181,2.31717 c 1.36311,1.29496 2.79443,2.52204 3.1352,2.79467 0.88603,0.68155 -0.95452,4.6344 -2.24947,4.70255 -0.6134,0 -3.61212,-6e-5 -6.61097,-0.0682 l -5.5888,-0.0682 -1.09038,3.20342 c -0.61339,1.77204 -1.09037,3.54431 -1.09037,3.95324 0,0.40894 1.84008,1.90807 4.15737,3.33934 l 4.08916,2.59002 -0.20412,3.13521 -0.20464,3.13521 -5.11184,1.43143 -5.11131,1.49914 -0.20464,2.86287 c -0.20447,2.79438 -0.13631,2.86236 1.8402,2.86236 1.77204,0 2.11305,-0.27245 2.11305,-1.63556 0,-1.70389 1.02215,-2.31757 7.15615,-4.02146 3.20331,-0.88602 3.40794,-1.15858 3.88503,-3.61218 1.09049,-6.134 0.88609,-6.5431 -3.61218,-8.79223 -2.24913,-1.15864 -4.2257,-2.18092 -4.36201,-2.38538 -0.13631,-0.20447 -0.0686,-1.15847 0.13591,-2.24896 l 0.34107,-1.8402 h 5.99756 5.99757 l 2.52181,-3.54397 2.59002,-3.54449 -1.63556,-1.3627 c -0.95417,-0.81787 -2.7265,-2.24931 -4.02146,-3.27164 l -2.38435,-1.90738 z m 16.83463,0 h 46.68553 v -0.001 h -23.30918 -23.37738 z m 46.68553,0 v 35.09915 35.09967 h 0.003 v -70.19882 z m 0,70.19882 h -3.79771 c 0.061,2.7e-4 0.12281,5.2e-4 0.18552,5.2e-4 h 3.61219 z m -3.79771,0 c -3.12112,-0.0136 -4.05416,-0.39798 -8.26564,-3.33933 -17.92491,-12.60878 -25.28586,-33.87297 -17.37982,-49.95768 1.02233,-2.11282 1.70412,-4.36206 1.49965,-5.04362 -0.6134,-1.63573 -4.36223,3.27129 -6.47506,8.38296 -4.22564,10.49595 -3.54391,22.62777 2.04484,33.94159 2.99884,6.134 5.7931,9.67785 10.90476,13.83533 l 2.72593,2.18075 z m -14.94534,0 h -27.80657 l -5.2e-4,5.2e-4 h 13.90355 13.90406 z m -27.80657,0 2.65772,-2.38487 c 1.43127,-1.29495 2.86213,-2.31774 3.20291,-2.3859 1.02233,0 0.40916,-1.90812 -1.56735,-4.63434 -2.31729,-3.27147 -2.658,-3.33945 -4.83898,-1.63556 -1.43127,1.2268 -1.49977,1.36299 -0.40928,2.93057 0.68156,0.88602 1.1591,1.77221 1.1591,2.04484 0,0.27262 -1.63619,1.70354 -3.6127,3.27111 l -3.67987,2.79415 z m -7.08845,0 H 247.1844 v 5.2e-4 h 7.29257 7.22437 z m -14.51746,0 V 142.875 107.84406 h -5.2e-4 v 70.19882 z m 17.71623,-29.59096 c -0.28114,0.007 -0.62619,0.0973 -1.08624,0.21652 -1.29496,0.40894 -1.36317,0.61294 -0.68161,3.1347 l 0.81803,2.72645 -4.83898,2.18074 -4.77128,2.18126 0.27285,2.93057 c 0.27262,3.74856 0.40881,3.95325 2.93057,3.95325 1.97651,0 2.04455,-0.0685 1.70377,-2.31769 -0.40893,-2.79437 -0.13608,-3.0667 5.18005,-5.17953 2.11282,-0.88602 3.88503,-1.90823 3.88503,-2.31717 0,-0.40893 -0.54524,-2.1812 -1.2268,-3.95324 -1.07345,-2.86254 -1.34197,-3.57822 -2.18539,-3.55586 z" /></g></g></g></svg>
