<?xml version="1.0" standalone="no"?>
<!DOCTYPE svg PUBLIC "-//W3C//DTD SVG 20010904//EN"
 "http://www.w3.org/TR/2001/REC-SVG-20010904/DTD/svg10.dtd">
<svg version="1.0" xmlns="http://www.w3.org/2000/svg"
 width="1999.745947pt" height="466.470246pt" viewBox="0 0 1999.745947 466.470246"
 preserveAspectRatio="xMidYMid meet">
<metadata>
Created by potrace 1.12, written by Peter Selinger 2001-2015
</metadata>
<g transform="translate(-0.187903,466.470246) scale(0.100000,-0.100000)"
fill="#ffffff" stroke="none">
<path d="M12506 4662 c-3 -3 -6 -1053 -6 -2334 l0 -2328 25 0 25 0 0 2329 c0
2297 0 2329 -19 2334 -11 3 -22 2 -25 -1z"/>
<path d="M16434 3788 c-66 -51 -154 -120 -197 -152 -64 -49 -75 -61 -60 -67
18 -6 516 -19 510 -12 -2 2 -45 23 -94 47 -50 24 -94 49 -97 55 -4 6 9 14 31
20 127 33 173 43 311 65 371 61 669 39 881 -65 111 -55 217 -158 264 -257 31
-65 32 -71 32 -202 0 -79 -6 -153 -13 -177 l-13 -43 -298 0 c-272 0 -305 -2
-365 -20 -187 -58 -317 -251 -303 -449 12 -180 113 -319 281 -390 l67 -28 -78
-70 c-87 -78 -278 -233 -334 -270 l-36 -24 -461 3 c-447 3 -461 4 -488 24 -63
47 -69 64 -69 202 l0 127 508 0 507 0 0 138 0 137 -504 -2 -505 -3 -6 93 c-13
162 3 208 85 250 44 22 48 22 487 22 l443 0 0 135 0 135 -487 0 -488 0 -63
-30 c-87 -41 -174 -126 -217 -213 l-35 -70 0 -442 c0 -493 1 -500 67 -595 46
-65 118 -122 193 -152 52 -21 72 -23 340 -26 l284 -3 -89 -51 c-387 -219 -963
-424 -1375 -489 -175 -28 -414 -30 -550 -6 -125 23 -259 69 -344 118 -38 22
-71 38 -73 35 -7 -6 96 -81 146 -106 81 -41 167 -69 282 -92 159 -32 449 -31
656 0 464 72 1018 263 1493 515 l135 72 630 5 c630 5 630 5 687 28 181 73 290
231 290 422 1 134 -47 237 -156 341 -63 60 -247 123 -300 103 -9 -3 -16 -3
-16 0 0 3 35 50 78 104 42 53 100 132 127 175 l50 77 93 0 c50 0 92 -1 92 -2
0 -2 -7 -25 -15 -52 -37 -120 -8 -279 68 -383 52 -69 94 -103 185 -146 l67
-32 320 -5 c217 -3 326 -9 340 -17 141 -82 120 -290 -33 -333 -22 -6 -189 -10
-424 -10 l-388 0 0 -135 0 -135 408 0 c436 0 470 3 572 53 58 28 159 129 187
187 28 57 53 153 53 201 0 169 -106 341 -253 410 -92 43 -150 49 -453 49 -265
0 -272 0 -305 23 -96 64 -114 182 -42 268 50 58 54 59 493 59 l400 0 0 135 0
135 -620 0 c-341 0 -620 2 -620 5 0 3 10 40 22 82 31 108 31 291 0 376 -71
193 -271 333 -547 383 -155 28 -457 26 -645 -4 -183 -30 -379 -72 -517 -113
-59 -17 -116 -33 -125 -36 -22 -6 -16 19 28 115 18 39 31 72 30 72 -2 0 -57
-42 -122 -92z m1446 -1067 c0 -14 -125 -197 -188 -274 l-59 -72 -115 5 c-106
5 -117 7 -151 33 -49 37 -68 78 -68 142 0 77 38 139 101 164 31 12 480 14 480
2z m150 -633 c132 -67 131 -250 -1 -316 -45 -22 -48 -22 -424 -20 l-378 3 137
109 c76 60 174 140 219 177 l81 69 161 0 c147 0 165 -2 205 -22z"/>
<path d="M4385 3815 c-5 -2 -42 -9 -81 -15 l-71 -11 5 -123 5 -123 -84 -7
c-133 -11 -207 -58 -256 -164 -20 -43 -25 -68 -25 -141 0 -95 20 -161 65 -210
58 -63 178 -80 255 -36 40 23 42 23 42 4 0 -17 8 -19 90 -19 l90 0 0 425 c0
434 0 432 -35 420z m-145 -553 l0 -149 -25 -11 c-54 -25 -105 -11 -129 36 -47
93 -16 231 59 262 11 5 37 9 58 9 l37 1 0 -148z"/>
<path d="M5585 3815 c-5 -2 -43 -9 -84 -15 l-73 -12 2 -102 c4 -157 12 -142
-76 -149 -128 -11 -203 -57 -251 -155 -25 -51 -28 -68 -28 -157 0 -92 3 -104
30 -154 39 -72 86 -102 167 -108 59 -5 85 1 151 35 4 2 7 -3 7 -12 0 -13 15
-16 93 -16 l92 0 0 425 c0 277 -3 425 -10 424 -5 0 -14 -2 -20 -4z m-152 -437
c2 -18 2 -85 0 -148 -6 -129 -12 -140 -73 -140 -61 0 -100 58 -100 150 0 103
52 170 131 170 34 0 37 -3 42 -32z"/>
<path d="M1450 3794 c-8 -1 -36 -6 -62 -9 l-48 -6 0 -81 0 -81 38 6 c20 3 61
9 90 13 l52 7 0 78 0 79 -27 -1 c-16 -1 -35 -3 -43 -5z"/>
<path d="M3683 3790 c-81 -12 -78 -8 -75 -94 l4 -76 51 6 c29 3 68 9 87 13
l35 7 3 77 3 77 -28 -1 c-15 -1 -52 -5 -80 -9z"/>
<path d="M7 3458 c2 -145 9 -286 14 -314 25 -132 185 -213 365 -184 75 12 109
27 158 71 57 49 64 88 71 407 l7 282 -85 0 c-47 0 -87 -3 -90 -7 -2 -5 1 -100
5 -213 14 -330 -3 -396 -104 -407 -56 -6 -101 15 -125 60 -16 28 -18 66 -21
300 l-3 267 -99 0 -98 0 5 -262z"/>
<path d="M797 3532 l-89 -15 6 -31 c3 -17 8 -140 12 -274 l7 -243 90 3 90 3
-2 201 -2 200 26 12 c14 7 39 12 55 12 53 0 60 -25 67 -239 l6 -191 89 0 88 0
-1 198 c0 221 -7 281 -36 320 -54 74 -152 75 -285 4 -4 -2 -8 9 -10 24 -2 15
-7 28 -13 29 -5 1 -50 -5 -98 -13z"/>
<path d="M1431 3534 c-41 -7 -80 -15 -85 -17 -8 -3 -10 -91 -8 -276 l3 -271
101 0 101 0 -7 53 c-3 28 -6 159 -6 290 0 183 -3 237 -12 236 -7 -1 -46 -7
-87 -15z"/>
<path d="M2322 3536 c-85 -21 -159 -93 -182 -175 -15 -53 -12 -182 5 -230 21
-61 58 -104 116 -136 69 -37 198 -46 293 -21 70 19 76 29 76 118 0 34 -2 39
-17 33 -57 -25 -122 -44 -149 -45 -69 0 -134 38 -153 90 -9 26 -8 28 27 34 21
3 100 6 176 6 l139 0 -6 78 c-3 44 -14 96 -25 122 -22 50 -73 104 -113 118
-46 18 -133 21 -187 8z m127 -130 c12 -13 23 -36 24 -52 l2 -29 -88 -3 -88 -3
7 28 c17 74 98 107 143 59z"/>
<path d="M2815 3533 c-44 -8 -82 -17 -85 -21 -3 -4 -4 -127 -2 -274 l3 -268
95 0 95 0 -3 179 c-3 167 -2 180 17 201 16 18 28 21 62 17 24 -2 43 -4 43 -3
0 0 7 39 14 86 9 49 11 89 6 94 -17 17 -88 -13 -119 -51 l-30 -37 2 44 c1 23
-2 44 -8 45 -5 1 -46 -4 -90 -12z"/>
<path d="M3250 3537 c-101 -23 -150 -79 -150 -172 0 -87 34 -124 160 -175 65
-26 81 -37 87 -58 17 -71 -118 -84 -209 -20 -15 10 -29 15 -31 10 -3 -4 -7
-34 -8 -67 l-3 -60 49 -18 c39 -13 73 -17 150 -14 104 4 145 17 193 60 32 29
54 112 43 160 -18 76 -57 111 -168 148 -67 22 -87 38 -81 66 9 45 95 52 170
13 21 -11 39 -16 42 -12 2 4 6 32 7 62 l4 55 -35 11 c-58 19 -161 24 -220 11z"/>
<path d="M3685 3533 c-44 -8 -80 -15 -80 -16 0 -1 1 -125 3 -275 l3 -273 97 3
c80 3 96 6 93 18 -2 8 -4 136 -5 285 -1 232 -3 270 -16 271 -8 1 -51 -5 -95
-13z"/>
<path d="M4725 3543 c-64 -7 -151 -25 -162 -35 -11 -9 -20 -128 -10 -128 2 0
30 9 62 20 32 11 84 20 116 20 52 0 61 -3 75 -25 9 -14 15 -27 13 -29 -2 -2
-48 -13 -103 -24 -167 -36 -226 -90 -226 -204 1 -143 148 -223 283 -154 44 22
47 22 47 5 0 -17 9 -19 89 -19 l88 0 -4 227 c-4 265 -9 284 -83 320 -44 21
-125 32 -185 26z m93 -365 l-3 -63 -43 -15 c-57 -20 -95 -1 -100 49 -5 53 41
88 121 90 l28 1 -3 -62z"/>
<path d="M1653 3533 c-40 -2 -73 -7 -73 -11 0 -4 38 -124 85 -266 47 -143 85
-265 85 -273 0 -18 189 -19 194 0 2 6 43 130 90 273 47 144 86 266 86 273 0
12 -44 14 -112 5 l-45 -6 -32 -132 c-18 -72 -40 -156 -48 -186 l-16 -55 -22
95 c-73 309 -67 290 -95 288 -14 -1 -58 -4 -97 -5z"/>
<path d="M14410 3001 c-88 -27 -189 -108 -247 -198 -62 -98 -63 -105 -63 -745
l0 -578 98 0 c53 0 114 -3 135 -6 l37 -7 0 162 0 161 410 0 409 0 3 -152 3
-153 135 0 135 0 0 605 0 605 -28 57 c-55 113 -159 202 -278 239 -55 17 -94
19 -392 18 -183 0 -343 -4 -357 -8z m707 -278 c71 -33 73 -43 73 -365 l0 -286
-102 -7 c-57 -3 -240 -5 -408 -3 l-305 3 0 296 c0 283 1 298 20 319 53 60 54
60 383 60 263 0 309 -2 339 -17z"/>
<path d="M4021 2654 c-40 -7 -74 -14 -75 -16 -1 -2 0 -186 2 -410 l4 -408 95
0 96 0 -7 77 c-3 42 -6 233 -6 425 0 325 -1 348 -17 347 -10 -1 -51 -7 -92
-15z"/>
<path d="M5010 2659 c-25 -4 -59 -11 -76 -14 l-31 -5 5 -124 5 -123 -82 -6
c-190 -13 -282 -114 -283 -312 -1 -123 42 -207 127 -246 58 -27 132 -24 189 6
44 23 46 24 46 5 0 -18 7 -20 88 -20 l87 0 1 425 c2 387 0 425 -15 424 -9 -1
-36 -5 -61 -10z m-100 -543 c0 -138 -1 -146 -22 -160 -34 -24 -85 -20 -113 8
-68 68 -51 239 27 282 13 8 42 13 66 14 l42 0 0 -144z"/>
<path d="M1930 2645 c-8 -2 -32 -6 -52 -10 l-38 -6 0 -81 0 -81 38 7 c20 3 61
9 90 12 l52 7 0 78 0 79 -37 -1 c-21 -1 -45 -3 -53 -4z"/>
<path d="M8870 2643 c-14 -2 -40 -6 -57 -9 l-33 -5 0 -81 0 -81 38 7 c20 3 60
9 88 12 l52 6 6 46 c3 24 6 60 6 78 0 33 -1 34 -37 33 -21 -1 -49 -3 -63 -6z"/>
<path d="M10098 2545 l-36 -95 63 0 62 0 51 79 c77 118 78 111 -20 111 l-85 0
-35 -95z"/>
<path d="M14 2195 l1 -375 83 0 83 0 -6 148 c-3 81 -7 194 -10 252 -4 86 -3
102 8 86 51 -79 230 -345 274 -408 l54 -78 75 0 74 0 0 375 0 375 -81 0 -80 0
6 -227 7 -228 -109 160 c-60 88 -129 190 -152 228 l-44 67 -92 0 -93 0 2 -375z"/>
<path d="M6094 2539 c3 -17 6 -186 6 -375 l0 -344 98 0 97 0 0 375 0 375 -104
0 -103 0 6 -31z"/>
<path d="M924 2391 c-28 -5 -67 -14 -87 -20 l-37 -13 0 -63 0 -63 61 19 c75
24 161 25 183 3 31 -30 18 -40 -70 -58 -146 -29 -211 -72 -234 -157 -23 -84
20 -177 97 -211 60 -26 150 -22 193 10 36 27 40 27 40 2 0 -18 7 -20 88 -20
l87 0 -3 227 c-3 219 -5 230 -28 269 -16 29 -36 46 -64 58 -49 19 -157 28
-226 17z m146 -354 c0 -65 -5 -72 -57 -87 -37 -11 -45 -11 -68 4 -70 46 -34
111 72 135 21 4 41 6 46 4 4 -2 7 -28 7 -56z"/>
<path d="M1527 2390 c-137 -35 -207 -131 -207 -286 0 -132 50 -219 153 -264
61 -27 166 -35 232 -18 l50 13 7 65 c4 35 5 66 3 68 -2 2 -27 -4 -55 -13 -98
-32 -176 5 -200 95 -21 80 6 165 63 200 41 25 88 25 138 0 45 -24 45 -24 52
62 l6 57 -37 11 c-54 16 -161 21 -205 10z"/>
<path d="M1924 2385 c-79 -15 -97 -22 -89 -36 4 -5 7 -127 7 -270 l-1 -259
101 0 101 0 -7 46 c-3 26 -6 156 -6 290 l0 244 -22 -1 c-13 -1 -50 -7 -84 -14z"/>
<path d="M2303 2386 c-73 -18 -125 -57 -159 -119 -24 -44 -29 -67 -32 -142 -5
-103 6 -152 47 -216 45 -72 100 -94 231 -94 92 0 111 3 154 25 89 45 128 124
129 260 0 138 -40 221 -128 265 -62 31 -168 40 -242 21z m121 -110 c43 -18 66
-74 66 -164 0 -117 -28 -177 -86 -188 -25 -5 -38 0 -63 23 -28 24 -33 38 -40
93 -11 85 2 185 25 212 15 16 43 33 62 37 1 1 18 -5 36 -13z"/>
<path d="M2831 2384 c-41 -7 -75 -15 -76 -16 -2 -2 -1 -126 2 -275 l6 -273 93
0 93 0 -6 203 -6 202 37 18 c21 9 47 15 60 11 43 -10 50 -45 54 -246 l4 -188
88 0 c49 0 90 3 92 8 2 4 1 111 -2 237 -5 218 -6 232 -28 267 -16 25 -37 42
-67 54 -55 20 -104 15 -179 -19 l-56 -26 0 30 c0 33 2 33 -109 13z"/>
<path d="M3525 2390 c-117 -22 -121 -26 -124 -124 -1 -33 2 -37 17 -31 94 39
208 47 235 17 28 -31 20 -39 -53 -51 -174 -28 -260 -96 -260 -204 0 -148 147
-232 283 -163 44 22 47 22 47 5 0 -17 9 -19 90 -19 l90 0 0 213 c-1 264 -13
308 -97 344 -43 17 -165 24 -228 13z m141 -416 c-9 -23 -82 -37 -114 -22 -22
11 -27 20 -27 52 0 47 28 72 95 84 l45 8 3 -55 c2 -29 1 -60 -2 -67z"/>
<path d="M5345 2382 c-103 -36 -154 -96 -176 -210 -26 -139 26 -270 130 -326
74 -40 216 -48 301 -19 l55 19 8 63 c5 34 7 64 5 66 -2 3 -28 -4 -56 -15 -70
-27 -166 -27 -209 0 -30 18 -63 65 -63 89 0 7 63 12 173 13 l172 3 -2 72 c-6
200 -155 308 -338 245z m144 -128 c12 -15 21 -40 21 -55 l0 -29 -85 0 c-52 0
-85 4 -85 10 0 23 29 79 47 89 34 20 80 13 102 -15z"/>
<path d="M6476 2382 l-79 -15 7 -60 c3 -33 6 -156 6 -273 l0 -214 95 0 96 0
-2 203 -1 202 37 19 c44 22 80 11 96 -30 5 -15 11 -109 14 -208 l4 -181 91 -3
92 -3 -7 233 c-7 254 -13 282 -68 322 -43 32 -136 28 -204 -7 -29 -15 -54 -27
-56 -27 -2 0 -2 14 1 30 5 35 1 36 -122 12z"/>
<path d="M7765 2391 c-87 -24 -134 -61 -173 -135 -24 -46 -27 -62 -27 -151 0
-89 3 -106 27 -150 31 -59 57 -85 118 -116 63 -32 201 -38 285 -12 l60 19 3
66 3 66 -51 -19 c-62 -23 -159 -25 -205 -3 -30 14 -65 64 -65 93 0 7 58 11
173 13 l172 3 -3 55 c-6 128 -46 211 -122 250 -45 23 -148 34 -195 21z m120
-136 c16 -15 25 -36 25 -55 l0 -30 -86 0 -86 0 6 33 c13 70 94 100 141 52z"/>
<path d="M8236 2382 l-79 -15 7 -120 c3 -66 6 -189 6 -274 l0 -153 96 0 95 0
-7 203 -7 204 43 17 c92 37 104 12 108 -231 l4 -193 88 0 c49 0 90 3 93 8 2 4
1 111 -3 237 -5 216 -7 232 -28 267 -16 25 -37 42 -67 54 -55 20 -104 15 -179
-19 l-56 -26 0 30 c0 34 1 33 -114 11z"/>
<path d="M8860 2384 l-75 -15 0 -274 0 -275 99 0 99 0 -7 77 c-3 42 -6 172 -6
290 0 197 -1 213 -17 212 -10 -1 -52 -8 -93 -15z"/>
<path d="M9255 2391 c-83 -20 -152 -77 -182 -150 -24 -58 -28 -177 -8 -246 23
-81 89 -147 171 -171 71 -20 209 -15 272 11 l42 17 0 63 0 63 -50 -19 c-64
-24 -171 -26 -210 -3 -29 18 -60 62 -60 88 0 14 21 16 169 16 94 0 172 3 174
8 2 4 1 41 -3 83 -9 85 -43 164 -86 198 -52 41 -154 60 -229 42z m100 -117
c19 -8 45 -55 45 -84 0 -19 -6 -20 -85 -20 -83 0 -85 0 -85 24 0 37 46 86 80
86 16 0 36 -3 45 -6z"/>
<path d="M9729 2382 l-75 -15 2 -271 2 -271 94 0 93 0 -4 173 c-3 149 -1 176
14 198 14 23 22 25 63 22 l47 -3 12 75 c17 108 17 110 -12 110 -36 0 -79 -24
-104 -57 l-20 -28 -1 43 c0 48 4 47 -111 24z"/>
<path d="M10120 2384 l-75 -15 0 -274 0 -275 99 0 99 0 -6 83 c-4 45 -7 175
-7 290 0 191 -1 207 -17 206 -10 -1 -52 -8 -93 -15z"/>
<path d="M10515 2394 c-11 -2 -46 -9 -78 -16 -67 -13 -77 -25 -77 -98 0 -46 2
-51 18 -45 94 39 208 47 235 17 28 -31 20 -39 -53 -51 -137 -22 -217 -67 -246
-137 -38 -92 10 -210 99 -243 48 -19 120 -13 170 13 44 22 47 22 47 5 0 -17 9
-19 90 -19 l90 0 0 213 c-1 264 -13 308 -97 344 -34 14 -163 25 -198 17z m111
-420 c-9 -23 -82 -37 -114 -22 -22 11 -27 20 -27 52 0 47 28 72 95 84 l45 8 3
-55 c2 -29 1 -60 -2 -67z"/>
<path d="M7173 2379 c-53 -10 -91 -30 -125 -66 -71 -75 -64 -196 15 -259 l36
-28 -36 -69 -36 -68 22 -16 23 -15 -31 -32 c-74 -76 -58 -178 36 -233 40 -23
61 -28 139 -31 119 -5 189 14 249 69 77 71 81 177 10 245 -33 31 -69 44 -212
75 -29 6 -53 14 -53 17 1 20 21 30 71 35 146 14 233 126 189 241 -9 25 -8 26
24 26 30 0 34 4 40 31 3 17 6 44 6 59 l0 27 -162 0 c-90 0 -182 -3 -205 -8z
m121 -121 c25 -36 21 -104 -9 -133 -13 -14 -31 -25 -40 -25 -66 0 -97 107 -48
163 23 25 78 22 97 -5z m35 -497 c27 -15 28 -54 1 -81 -25 -25 -109 -28 -145
-4 -32 21 -40 64 -21 103 l16 30 63 -19 c36 -10 74 -23 86 -29z"/>
<path d="M19848 1633 c-55 -34 -64 -105 -19 -155 24 -27 36 -33 71 -33 101 0
137 137 50 188 -35 21 -67 21 -102 0z m104 -17 c23 -17 40 -64 32 -90 -21 -71
-102 -90 -148 -35 -36 43 -31 92 13 126 21 16 82 16 103 -1z"/>
<path d="M19861 1548 c1 -29 4 -43 6 -30 6 28 27 28 47 0 9 -12 19 -19 22 -15
4 4 1 13 -6 22 -10 12 -10 18 0 30 18 21 -4 45 -41 45 -28 0 -29 -1 -28 -52z
m57 20 c-3 -7 -13 -13 -23 -13 -10 0 -20 6 -22 13 -3 7 5 12 22 12 17 0 25 -5
23 -12z"/>
<path d="M3615 1521 l-30 -6 4 -111 3 -111 -76 -6 c-90 -8 -139 -26 -184 -70
-47 -44 -71 -96 -78 -165 -14 -131 51 -238 159 -263 55 -12 82 -8 160 26 12 5
17 3 17 -9 0 -13 11 -16 50 -16 l50 0 0 370 0 370 -22 -1 c-13 -1 -36 -4 -53
-8z m-25 -461 l0 -150 -32 -20 c-66 -40 -158 -17 -184 45 -17 40 -18 132 -3
172 25 66 83 102 167 103 l52 0 0 -150z"/>
<path d="M7663 1523 l-33 -4 0 -365 0 -364 56 0 56 0 -7 179 -7 179 39 27 c50
32 113 37 142 11 33 -30 41 -79 41 -243 l0 -153 51 0 52 0 -5 199 c-5 181 -7
203 -27 234 -39 63 -133 79 -226 38 -26 -12 -52 -21 -58 -21 -7 0 -8 48 -4
145 l7 145 -22 -2 c-13 0 -38 -3 -55 -5z"/>
<path d="M2075 1441 c-45 -20 -92 -70 -101 -107 -11 -44 2 -120 25 -153 16
-23 57 -48 137 -87 121 -59 144 -80 144 -130 0 -96 -140 -135 -255 -70 -24 13
-46 21 -49 18 -3 -3 -6 -25 -6 -49 0 -41 2 -45 37 -59 52 -22 170 -29 233 -14
57 14 112 55 137 104 20 39 20 123 0 161 -23 46 -48 64 -170 124 -129 64 -149
87 -127 141 25 60 113 77 217 40 32 -11 59 -20 61 -20 2 0 2 21 0 47 -3 46 -4
48 -43 59 -64 20 -193 17 -240 -5z"/>
<path d="M17 1123 l3 -328 52 -3 53 -3 0 331 0 330 -55 0 -55 0 2 -327z"/>
<path d="M255 1120 l0 -330 198 0 197 0 0 35 c0 19 0 38 0 43 0 4 -65 5 -145
3 l-145 -3 0 111 0 110 133 3 132 3 0 40 0 39 -132 -3 -133 -3 0 102 0 101
143 -2 142 -2 3 41 3 42 -198 0 -198 0 0 -330z"/>
<path d="M740 1120 l0 -330 198 2 197 3 3 41 3 42 -145 -5 -146 -6 0 112 0
111 130 0 130 0 0 43 0 42 -130 -4 -130 -3 0 102 0 102 139 -4 140 -3 5 29
c12 59 23 56 -194 56 l-200 0 0 -330z"/>
<path d="M1225 1120 l0 -330 198 0 197 0 0 35 c0 19 0 38 0 43 0 4 -65 5 -145
3 l-145 -3 0 111 0 111 130 0 c129 0 130 0 136 24 14 58 10 60 -131 60 l-130
1 -3 75 c-5 129 -14 122 146 119 l137 -3 3 42 3 42 -198 0 -198 0 0 -330z"/>
<path d="M5384 1419 c3 -17 6 -166 6 -330 l0 -299 133 0 c152 1 208 11 255 47
52 39 72 80 72 144 0 75 -28 117 -96 144 l-50 20 37 18 c44 21 79 83 79 139 0
48 -36 98 -90 126 -40 20 -58 22 -198 22 l-154 0 6 -31z m237 -49 c64 -12 89
-37 89 -89 0 -73 -55 -111 -160 -111 l-60 0 0 99 0 100 33 4 c17 2 35 5 38 5
4 1 31 -3 60 -8z m68 -300 c43 -22 51 -35 51 -89 0 -78 -61 -115 -180 -109
l-65 3 -3 108 -3 107 81 0 c60 0 90 -5 119 -20z"/>
<path d="M2523 1407 l-43 -10 0 -58 0 -58 -32 -3 c-30 -3 -33 -6 -36 -40 -3
-37 -3 -38 32 -38 l36 0 0 -165 c0 -184 7 -213 58 -234 16 -7 53 -11 83 -9
l54 3 6 38 6 39 -33 -7 c-26 -4 -38 -1 -54 15 -18 18 -20 32 -20 170 l0 150
55 0 55 0 0 40 0 40 -55 0 -55 0 0 70 c0 39 -3 69 -7 69 -5 -1 -27 -6 -50 -12z"/>
<path d="M4873 1407 l-43 -10 0 -58 0 -58 -32 -3 c-30 -3 -33 -6 -36 -40 -3
-37 -3 -38 32 -38 l36 0 0 -174 c0 -170 1 -176 24 -203 22 -26 30 -28 98 -28
l73 0 3 38 3 38 -34 -6 c-61 -12 -67 4 -67 181 l0 154 49 0 c47 0 49 1 54 33
2 17 3 35 0 40 -2 4 -26 7 -54 7 l-49 0 0 70 c0 39 -3 69 -7 69 -5 -1 -27 -6
-50 -12z"/>
<path d="M17698 1313 c-8 -16 4 -203 13 -197 12 7 12 191 0 199 -5 3 -11 2
-13 -2z"/>
<path d="M17764 1309 c-2 -3 -1 -48 1 -100 l5 -94 32 0 c17 0 33 6 36 13 2 7
-6 12 -22 12 -23 0 -26 4 -26 35 0 28 4 35 20 35 11 0 20 5 20 10 0 6 -9 10
-20 10 -31 0 -28 57 3 62 12 2 20 7 17 12 -6 10 -60 14 -66 5z"/>
<path d="M17876 1310 c-1 -3 0 -49 2 -103 l3 -98 31 3 c39 4 51 28 14 28 -23
0 -26 4 -26 35 0 28 4 35 20 35 11 0 20 5 20 10 0 6 -9 10 -20 10 -16 0 -20 7
-20 30 0 26 4 30 26 30 38 0 24 23 -15 24 -18 1 -34 -1 -35 -4z"/>
<path d="M17990 1212 l0 -103 32 3 c39 4 51 28 14 28 -23 0 -26 4 -26 35 0 28
4 35 20 35 11 0 20 5 20 10 0 6 -9 10 -20 10 -16 0 -20 7 -20 30 0 26 4 30 26
30 38 0 24 23 -14 24 l-32 1 0 -103z"/>
<path d="M18185 1298 c-11 -50 -35 -170 -35 -179 0 -24 19 -5 24 26 5 25 12
35 25 35 13 0 21 -10 25 -35 8 -39 26 -48 26 -12 0 12 -9 58 -18 101 -18 81
-37 106 -47 64z m25 -63 c0 -19 -4 -35 -10 -35 -11 0 -13 30 -4 54 10 25 14
19 14 -19z"/>
<path d="M18286 1311 c-2 -3 -1 -50 2 -104 l5 -98 30 3 c38 4 49 28 13 28 -23
0 -26 4 -26 35 0 28 4 35 20 35 11 0 20 5 20 10 0 6 -9 10 -20 10 -16 0 -20 7
-20 30 0 23 5 30 19 30 36 0 32 18 -5 22 -19 2 -37 2 -38 -1z"/>
<path d="M18400 1212 c0 -66 4 -102 9 -96 5 5 11 27 13 49 l3 40 14 -40 c7
-22 17 -44 22 -49 17 -19 19 2 4 44 -11 31 -12 46 -4 56 5 7 9 30 7 50 -3 34
-7 39 -35 45 l-33 6 0 -105z m48 46 c2 -16 -3 -28 -12 -31 -13 -5 -16 1 -16
29 0 41 23 43 28 2z"/>
<path d="M18530 1300 c-16 -16 -20 -33 -20 -83 0 -95 41 -136 86 -86 14 16 19
36 19 84 0 48 -5 68 -19 84 -24 26 -40 27 -66 1z m54 -26 c3 -9 6 -35 6 -59 0
-53 -8 -75 -26 -75 -19 0 -34 33 -34 75 0 61 38 102 54 59z"/>
<path d="M18666 1305 c-23 -24 -20 -59 9 -93 14 -17 25 -40 25 -52 0 -19 -4
-21 -25 -17 -20 3 -25 1 -23 -12 4 -20 35 -26 53 -11 20 17 19 84 -1 100 -26
23 -37 50 -24 65 6 8 18 11 27 8 11 -4 14 -2 11 8 -7 20 -33 22 -52 4z"/>
<path d="M18770 1214 c0 -63 4 -104 10 -104 6 0 10 17 10 38 0 29 5 40 22 47
25 11 37 48 28 85 -4 17 -15 26 -38 31 l-32 6 0 -103z m48 44 c2 -13 -4 -31
-12 -38 -14 -11 -16 -7 -16 30 0 46 23 53 28 8z"/>
<path d="M18896 1312 c-5 -9 -36 -168 -36 -189 0 -25 17 -5 24 28 8 40 39 36
46 -5 5 -31 30 -49 30 -22 0 8 -7 45 -15 83 -9 37 -18 78 -20 91 -5 22 -19 29
-29 14z m24 -88 c0 -15 -6 -24 -16 -24 -11 0 -14 5 -10 16 3 9 6 22 6 30 0 9
5 12 10 9 6 -3 10 -17 10 -31z"/>
<path d="M19024 1313 c-22 -16 -34 -53 -34 -107 0 -43 5 -61 21 -77 23 -23 62
-22 67 3 2 13 -2 15 -19 11 -28 -8 -49 19 -49 63 0 54 16 84 46 84 16 0 24 5
22 13 -5 14 -38 20 -54 10z"/>
<path d="M19116 1310 c-1 -3 0 -49 2 -103 l3 -98 31 3 c39 4 51 28 14 28 -23
0 -26 4 -26 35 0 28 4 35 20 35 11 0 20 5 20 10 0 6 -9 10 -20 10 -31 0 -28
57 3 62 12 2 20 7 17 12 -5 10 -61 15 -64 6z"/>
<path d="M19316 1308 c-8 -27 -36 -169 -36 -183 0 -30 18 -14 24 21 9 45 36
43 50 -4 9 -34 26 -44 26 -14 -2 44 -37 186 -48 190 -6 2 -14 -2 -16 -10z m23
-90 c1 -10 -3 -18 -9 -18 -5 0 -10 17 -9 38 0 30 2 33 9 17 5 -11 9 -28 9 -37z"/>
<path d="M19416 1312 c-5 -9 0 -187 6 -202 1 -3 4 29 7 70 l6 75 25 -69 c37
-104 50 -98 50 23 0 61 -4 101 -10 101 -6 0 -10 -30 -11 -67 l-1 -68 -21 62
c-23 66 -41 92 -51 75z"/>
<path d="M19560 1213 c0 -108 1 -109 46 -97 29 8 44 44 44 108 0 62 -13 82
-57 88 l-33 5 0 -104z m58 65 c15 -15 16 -92 2 -119 -6 -10 -17 -19 -25 -19
-12 0 -15 16 -15 75 0 76 9 92 38 63z"/>
<path d="M3905 1266 c-60 -28 -77 -46 -107 -111 -47 -105 -22 -257 53 -320 65
-54 202 -69 292 -32 35 15 37 18 37 61 l0 45 -46 -24 c-86 -46 -200 -27 -235
37 -7 13 -16 40 -19 61 l-7 37 163 0 164 0 0 58 c-1 164 -147 258 -295 188z
m155 -73 c17 -16 34 -42 39 -59 l9 -31 -85 -6 c-145 -10 -172 7 -116 73 48 57
106 65 153 23z"/>
<path d="M4503 1281 c-17 -5 -50 -18 -72 -29 l-41 -22 0 26 c0 26 -1 26 -47
19 -27 -4 -51 -10 -54 -13 -3 -4 -4 -112 -1 -240 l4 -233 52 3 51 3 -4 180 -3
180 38 22 c69 39 127 35 154 -9 18 -30 20 -51 20 -206 l0 -173 51 3 52 3 -2
190 c-2 206 -10 240 -61 276 -30 21 -94 30 -137 20z"/>
<path d="M6110 1279 c-14 -5 -35 -22 -48 -37 l-22 -27 6 34 7 34 -49 -8 c-27
-4 -52 -9 -55 -10 -3 -2 -4 -109 -2 -237 l2 -233 51 -3 50 -3 0 171 0 172 30
30 c24 24 36 28 59 23 27 -6 28 -4 38 44 6 28 8 53 5 56 -8 8 -44 5 -72 -6z"/>
<path d="M6325 1275 c-27 -8 -53 -14 -57 -15 -9 0 -22 -69 -15 -76 3 -3 26 2
51 10 67 23 141 21 166 -4 11 -11 20 -30 20 -43 0 -21 -7 -24 -75 -35 -88 -14
-164 -49 -190 -88 -50 -76 -18 -191 63 -226 51 -23 109 -21 162 6 40 20 40 20
40 1 0 -11 12 -15 51 -15 l50 0 -3 204 c-3 189 -5 207 -24 233 -11 15 -34 34
-50 42 -41 21 -130 23 -189 6z m165 -300 c0 -74 0 -76 -32 -95 -33 -20 -81
-26 -113 -14 -19 8 -45 55 -45 84 0 46 83 95 168 99 21 1 22 -3 22 -74z"/>
<path d="M6898 1276 c-25 -7 -58 -20 -72 -29 -26 -17 -26 -17 -26 9 0 26 -1
26 -47 19 -27 -4 -51 -10 -54 -13 -3 -4 -4 -112 -1 -240 l5 -233 50 3 50 3 -2
180 -2 180 31 18 c52 31 89 38 125 23 47 -20 55 -54 55 -242 l0 -164 51 0 51
0 -4 203 c-3 173 -6 207 -21 230 -34 52 -112 75 -189 53z"/>
<path d="M7349 1276 c-63 -22 -97 -54 -134 -126 -29 -54 -27 -181 4 -243 47
-96 147 -142 261 -118 30 6 60 16 66 23 12 12 24 95 14 91 -3 -1 -25 -11 -50
-22 -57 -26 -96 -26 -138 -1 -51 31 -72 75 -72 150 0 78 21 125 69 157 42 29
94 29 144 3 28 -15 37 -17 37 -6 0 7 3 27 6 44 6 30 5 31 -47 46 -63 19 -111
20 -160 2z"/>
<path d="M2757 1273 c-9 -9 -8 -231 2 -325 6 -60 14 -85 34 -111 46 -61 148
-72 238 -26 38 19 40 19 37 2 -3 -15 5 -18 48 -21 l51 -3 -1 246 -1 246 -50
-3 -50 -3 -3 -187 -2 -188 -40 -20 c-48 -25 -101 -26 -129 -2 -34 27 -42 83
-35 250 l7 152 -50 0 c-27 0 -53 -3 -56 -7z"/>
<path d="M16810 880 l0 -100 34 0 c19 0 38 5 41 10 4 6 -5 10 -19 10 -23 0
-26 4 -26 35 0 28 4 35 20 35 11 0 20 6 20 14 0 9 -7 12 -20 9 -17 -5 -20 0
-20 26 0 24 4 31 20 31 11 0 20 7 20 15 0 10 -11 15 -35 15 l-35 0 0 -100z"/>
<path d="M16920 880 l0 -100 35 0 c19 0 35 5 35 10 0 6 -9 10 -20 10 -19 0
-20 7 -20 90 0 73 -3 90 -15 90 -12 0 -15 -18 -15 -100z"/>
<path d="M17030 880 l0 -100 35 0 c19 0 35 5 35 10 0 6 -11 10 -25 10 -22 0
-25 4 -25 34 0 28 4 35 23 38 25 3 25 23 -1 23 -11 0 -18 9 -20 27 -3 21 1 27
19 30 39 5 35 28 -5 28 l-36 0 0 -100z"/>
<path d="M17144 945 c-32 -77 -7 -165 46 -165 18 0 30 5 30 13 0 8 -10 13 -22
13 -31 -1 -50 39 -43 89 6 42 28 67 51 58 8 -3 14 1 14 11 0 11 -9 16 -31 16
-25 0 -32 -6 -45 -35z"/>
<path d="M17250 965 c0 -8 7 -15 15 -15 12 0 15 -16 15 -85 0 -50 4 -85 10
-85 6 0 10 35 10 85 0 69 3 85 15 85 8 0 15 7 15 15 0 11 -11 15 -40 15 -29 0
-40 -4 -40 -15z"/>
<path d="M17360 880 c0 -80 3 -100 14 -100 10 0 16 14 18 43 l3 42 14 -42 c8
-24 20 -43 28 -43 16 0 16 1 -3 50 -13 31 -14 44 -5 53 15 15 14 70 -1 85 -7
7 -25 12 -40 12 l-28 0 0 -100z m58 37 c-6 -38 -28 -31 -28 8 0 33 2 36 15 25
9 -7 15 -22 13 -33z"/>
<path d="M17496 958 c-21 -30 -21 -126 0 -156 26 -38 66 -26 82 23 33 99 -32
204 -82 133z m52 -10 c18 -18 15 -123 -4 -139 -14 -11 -18 -10 -30 6 -24 33
-13 145 14 145 5 0 13 -5 20 -12z"/>
<path d="M17623 914 c4 -38 7 -84 7 -101 0 -18 5 -33 11 -33 8 0 10 22 7 70
-3 39 -4 69 -2 67 2 -1 13 -31 26 -67 35 -98 48 -90 48 29 0 61 -4 101 -10
101 -6 0 -10 -30 -11 -67 l-1 -68 -22 65 c-15 44 -29 66 -41 69 -17 3 -18 -3
-12 -65z"/>
<path d="M17770 880 c0 -60 4 -100 10 -100 6 0 10 40 10 100 0 60 -4 100 -10
100 -6 0 -10 -40 -10 -100z"/>
<path d="M17863 972 c-32 -20 -42 -102 -19 -157 13 -29 20 -35 45 -35 21 0 31
5 31 15 0 9 -6 12 -15 9 -29 -12 -45 16 -45 77 0 45 4 60 18 67 9 5 23 7 30 5
6 -3 12 2 12 11 0 17 -35 22 -57 8z"/>
<path d="M18032 968 c-20 -20 -14 -58 14 -90 31 -37 29 -73 -3 -72 -13 0 -23
-5 -23 -13 0 -10 10 -13 32 -11 25 2 33 9 39 30 7 26 1 41 -34 90 -21 31 -13
61 14 53 13 -4 19 -1 19 9 0 19 -40 22 -58 4z"/>
<path d="M18120 971 c0 -5 7 -28 15 -51 8 -23 15 -64 15 -91 0 -37 4 -49 15
-49 11 0 15 11 15 43 0 23 7 64 15 91 17 57 18 66 7 66 -5 0 -15 -19 -22 -42
l-14 -43 -9 43 c-6 24 -16 42 -23 42 -8 0 -14 -4 -14 -9z"/>
<path d="M18252 968 c-20 -20 -14 -65 14 -97 30 -36 28 -66 -4 -65 -12 0 -22
-5 -22 -13 0 -10 10 -13 33 -11 29 3 32 6 35 41 3 29 -3 45 -23 69 -31 36 -29
64 3 61 14 -2 22 3 22 12 0 18 -41 20 -58 3z"/>
<path d="M18340 965 c0 -8 7 -15 15 -15 12 0 15 -16 15 -85 0 -68 3 -85 15
-85 12 0 13 14 8 83 -5 80 -5 84 16 90 38 10 23 27 -24 27 -33 0 -45 -4 -45
-15z"/>
<path d="M18460 880 l0 -100 35 0 c19 0 35 5 35 10 0 6 -11 10 -25 10 -22 0
-25 4 -25 34 0 28 4 35 23 38 25 3 25 23 -1 23 -11 0 -18 9 -20 27 -3 21 1 27
19 30 39 5 35 28 -5 28 l-36 0 0 -100z"/>
<path d="M18570 880 c0 -60 4 -100 10 -100 6 0 11 32 11 73 l1 72 12 -69 c14
-88 31 -95 46 -19 16 84 18 85 19 11 1 -47 5 -68 14 -68 9 0 11 25 9 100 -3
76 -7 100 -17 100 -15 0 -20 -13 -30 -77 -10 -65 -22 -60 -30 12 -6 55 -10 65
-26 65 -17 0 -19 -8 -19 -100z"/>
<path d="M18740 961 c-16 -30 -12 -47 16 -80 32 -38 30 -77 -4 -74 -27 3 -29
-13 -2 -27 15 -8 24 -6 40 10 27 27 25 62 -6 99 -28 33 -28 67 -1 65 9 -1 17
4 17 12 0 21 -48 17 -60 -5z"/>
<path d="M18916 965 c-12 -33 -6 -64 20 -94 30 -36 28 -66 -4 -65 -12 0 -22
-5 -22 -13 0 -16 42 -17 58 -1 20 20 14 65 -14 97 -29 35 -28 66 1 66 28 0 21
19 -8 23 -15 2 -27 -3 -31 -13z"/>
<path d="M19036 964 c-16 -16 -21 -50 -16 -114 3 -52 16 -70 50 -70 39 0 50
23 50 103 0 49 -4 68 -18 80 -23 21 -46 22 -66 1z m54 -23 c15 -29 12 -104 -5
-127 -15 -19 -15 -19 -30 0 -26 34 -15 146 15 146 5 0 14 -9 20 -19z"/>
<path d="M19179 964 c-18 -22 -23 -123 -7 -154 16 -30 78 -42 78 -16 0 10 -8
15 -22 13 -15 -1 -26 6 -35 23 -27 52 -5 127 35 123 14 -2 22 3 22 12 0 20
-54 20 -71 -1z"/>
<path d="M19290 880 c0 -60 4 -100 10 -100 6 0 10 40 10 100 0 60 -4 100 -10
100 -6 0 -10 -40 -10 -100z"/>
<path d="M19360 880 l0 -100 35 0 c39 0 48 17 13 22 -18 2 -24 11 -26 36 -3
29 -1 32 23 32 17 0 25 5 23 12 -3 7 -13 13 -24 13 -13 0 -20 8 -22 27 -3 21
1 27 19 30 39 5 35 28 -5 28 l-36 0 0 -100z"/>
<path d="M19460 965 c0 -8 7 -15 15 -15 12 0 15 -16 15 -85 0 -50 4 -85 10
-85 6 0 10 35 10 85 0 69 3 85 15 85 8 0 15 7 15 15 0 11 -11 15 -40 15 -29 0
-40 -4 -40 -15z"/>
<path d="M19570 972 c0 -5 7 -29 15 -52 8 -23 15 -64 15 -91 0 -37 4 -49 15
-49 11 0 15 12 15 49 0 27 7 68 15 91 18 50 18 60 5 60 -5 0 -15 -19 -21 -42
l-12 -43 -12 39 c-10 36 -35 62 -35 38z"/>
</g>
</svg>
